<svg width="198" height="56" viewBox="0 0 198 56" fill="none" xmlns="http://www.w3.org/2000/svg">
<path d="M30.1892 24.0728L40.012 14.1385" stroke="black" stroke-width="3" stroke-linecap="round"/>
<path d="M62.6667 14.1385H28.3333" stroke="black" stroke-width="3" stroke-linecap="round"/>
<path d="M65 20L58 2" stroke="black" stroke-width="3" stroke-linecap="round"/>
<path d="M58.027 1.93845H42.2523" stroke="black" stroke-width="3" stroke-linecap="round"/>
<path d="M60.8381 21.4731C57.2057 23.6581 54.5396 26.8922 53.1016 30.8591C51.7211 34.6664 51.6415 38.5567 52.8439 42.6092C53.0826 43.4157 54.2395 45.9404 54.6936 46.646C56.9732 50.1935 59.9664 52.6437 63.7246 54.0426C67.4798 55.4351 71.345 55.5228 75.3426 54.303C76.14 54.0615 78.6365 52.8915 79.3341 52.4322C82.233 50.5285 84.4618 48.0361 85.8954 45.0836C87.9369 40.8885 88.2839 36.1878 86.905 31.5488C86.6666 30.7423 85.5094 28.2176 85.0557 27.512C82.7849 23.9679 79.7797 21.508 76.0244 20.1154C72.3528 18.754 68.5757 18.6403 64.712 19.7662C63.8582 20.0187 61.6079 21.0031 60.8381 21.4731ZM65.4859 21.9412C72.1411 19.904 79.4343 22.736 83.1765 28.8204C83.9486 30.0855 84.7921 32.2121 85.1253 33.7606C86.3084 39.1996 84.408 45.0953 80.2933 48.8139C78.952 50.0187 77.7357 50.791 75.9509 51.5654C72.916 52.8868 69.9266 53.1823 66.6286 52.5021C65.6005 52.2911 63.4247 51.4896 62.4868 50.9717C59.4584 49.3011 57.2075 46.8918 55.7656 43.7616C54.9552 41.993 54.5986 40.728 54.3787 38.8538C53.5787 31.9351 57.4432 25.2354 63.793 22.5475C64.2201 22.3708 64.9782 22.0935 65.4859 21.9412Z" fill="black"/>
<path d="M63.0528 25.4167C62.2737 25.8829 61.4298 26.5276 60.6779 27.238C59.9289 27.9547 58.9082 29.2038 58.992 29.3203C59.0398 29.3913 66.9721 35.0455 67.151 35.1329C67.2125 35.1662 67.3277 35.0813 67.5569 34.8258C67.8282 34.5274 67.9684 34.4304 68.5386 34.1632C69.1154 33.8929 69.2728 33.8503 69.6822 33.8374L70.1643 33.814L70.1918 33.5211C70.4915 30.547 71.0731 23.6195 71.027 23.5863C70.9045 23.5037 69.1947 23.5344 68.3514 23.6261C66.4732 23.8445 64.6935 24.4452 63.0528 25.4167Z" fill="black"/>
<path d="M68.5824 35.4349C67.7873 36.0177 67.5506 37.265 68.0782 38.1309C68.9901 39.6341 71.2102 39.3561 71.7218 37.6842C71.8779 37.1674 71.8481 36.683 71.6338 36.2153C71.0995 35.0493 69.6174 34.6697 68.5824 35.4349Z" fill="black"/>
<path d="M57.8065 42.9918C57.8624 43.1137 58.0819 43.5088 58.2961 43.8756C60.3836 47.4742 63.8478 49.8436 67.9313 50.4751C68.3137 50.5373 68.6352 50.5498 68.6491 50.5125C68.6627 50.4748 68.877 48.1716 69.1275 45.3922L69.5821 40.3375L69.1692 40.2429C68.3621 40.0607 67.5758 39.5031 67.1526 38.7985L66.9412 38.4536L62.3287 40.6155L57.7095 42.7803L57.8065 42.9918Z" fill="black"/>
<path d="M72.931 36.0898C73.189 36.8719 73.1013 37.8391 72.7172 38.5796L72.5216 38.9594L76.629 41.876C78.8878 43.4796 80.7638 44.8029 80.801 44.8167C80.8382 44.8304 81.0361 44.5741 81.2365 44.2387C83.4129 40.6579 83.8529 36.4274 82.4602 32.4641C82.3128 32.0584 82.1653 31.6527 82.1184 31.5501L82.0392 31.3773L77.4205 33.5421L72.8079 35.7039L72.931 36.0898Z" fill="black"/>
<path d="M9.13626 21.0592C5.50389 23.2443 2.83778 26.4784 1.3999 30.4453C0.019316 34.2525 -0.0603648 38.1429 1.14207 42.1954C1.38082 43.0019 2.53769 45.5265 2.99182 46.2322C5.27144 49.7796 8.26457 52.2299 12.0228 53.6287C15.778 55.0212 19.6432 55.109 23.6408 53.8892C24.4383 53.6477 26.9347 52.4776 27.6323 52.0183C30.5312 50.1147 32.7603 47.6223 34.1935 44.6697C36.2351 40.4747 36.5822 35.7739 35.2033 31.1349C34.9646 30.3284 33.8077 27.8038 33.3536 27.0981C31.0831 23.554 28.0779 21.0941 24.3226 19.7016C20.651 18.3401 16.8739 18.2265 13.0102 19.3524C12.1564 19.6048 9.90607 20.5893 9.13626 21.0592ZM13.7841 21.5273C20.4393 19.4901 27.7325 22.3221 31.4748 28.4065C32.2468 29.6717 33.0903 31.7982 33.4231 33.3468C34.6069 38.7857 32.7061 44.6814 28.5915 48.4001C27.2502 49.6049 26.0339 50.3771 24.2491 51.1516C21.2142 52.4729 18.2249 52.7684 14.9268 52.0882C13.8988 51.8773 11.7229 51.0757 10.785 50.5579C7.75662 48.8872 5.50575 46.4779 4.06384 43.3478C3.25337 41.5792 2.89679 40.3141 2.67685 38.4399C1.87687 31.5212 5.74153 24.8215 12.0912 22.1337C12.5184 21.957 13.2765 21.6797 13.7841 21.5273Z" fill="black"/>
<path d="M11.3511 25.0028C10.5719 25.4691 9.72801 26.1138 8.97611 26.8241C8.22709 27.5408 7.20637 28.7899 7.29026 28.9065C7.33804 28.9774 15.2704 34.6316 15.4493 34.719C15.5107 34.7523 15.6259 34.6675 15.8551 34.412C16.1265 34.1135 16.2667 34.0166 16.8368 33.7493C17.4136 33.479 17.571 33.4364 17.9804 33.4236L18.4625 33.4001L18.49 33.1072C18.7897 30.1331 19.3713 23.2057 19.3253 23.1725C19.2027 23.0899 17.4929 23.1206 16.6497 23.2123C14.7714 23.4306 12.9917 24.0313 11.3511 25.0028Z" fill="black"/>
<path d="M16.8806 35.021C16.0855 35.6039 15.8488 36.8511 16.3764 37.717C17.2884 39.2203 19.5085 38.9423 20.02 37.2703C20.1761 36.7535 20.1463 36.2692 19.9321 35.8014C19.3978 34.6354 17.9156 34.2559 16.8806 35.021Z" fill="black"/>
<path d="M6.10472 42.578C6.16058 42.6999 6.38013 43.095 6.59429 43.4617C8.68185 47.0604 12.146 49.4298 16.2295 50.0613C16.6119 50.1235 16.9335 50.136 16.9473 50.0986C16.9609 50.061 17.1752 47.7577 17.4257 44.9784L17.8803 39.9236L17.4674 39.829C16.6604 39.6469 15.874 39.0892 15.4508 38.3846L15.2394 38.0398L10.6269 40.2016L6.00775 42.3664L6.10472 42.578Z" fill="black"/>
<path d="M21.2292 35.676C21.4873 36.4581 21.3996 37.4252 21.0154 38.1658L20.8199 38.5456L24.9272 41.4621C27.186 43.0658 29.062 44.389 29.0992 44.4028C29.1364 44.4166 29.3345 44.1602 29.5347 43.8249C31.7112 40.244 32.1511 36.0135 30.7584 32.0503C30.611 31.6445 30.4636 31.2388 30.4166 31.1362L30.3375 30.9635L25.7187 33.1282L21.1062 35.2901L21.2292 35.676Z" fill="black"/>
<path d="M94.272 38.632L95.496 38.416C95.784 38.368 95.968 38.288 96.048 38.176C96.144 38.048 96.192 37.824 96.192 37.504V25.216C96.192 24.896 96.144 24.68 96.048 24.568C95.968 24.44 95.784 24.352 95.496 24.304L94.272 24.088V22.72H100.08V24.088L98.88 24.304C98.592 24.352 98.4 24.44 98.304 24.568C98.224 24.68 98.184 24.896 98.184 25.216V37.504C98.184 37.824 98.224 38.048 98.304 38.176C98.4 38.288 98.592 38.368 98.88 38.416L100.08 38.632V40H94.272V38.632Z" fill="black"/>
<path d="M94.272 38.632L95.496 38.416C95.784 38.368 95.968 38.288 96.048 38.176C96.144 38.048 96.192 37.824 96.192 37.504V25.216C96.192 24.896 96.144 24.68 96.048 24.568C95.968 24.44 95.784 24.352 95.496 24.304L94.272 24.088V22.72H100.08V24.088L98.88 24.304C98.592 24.352 98.4 24.44 98.304 24.568C98.224 24.68 98.184 24.896 98.184 25.216V37.504C98.184 37.824 98.224 38.048 98.304 38.176C98.4 38.288 98.592 38.368 98.88 38.416L100.08 38.632V40H94.272V38.632Z" fill="black" fill-opacity="0.2"/>
<path d="M117.76 38.632V40H111.832V38.68L113.08 38.464C113.496 38.384 113.704 38.192 113.704 37.888C113.704 37.744 113.672 37.576 113.608 37.384L112.552 34.264H106.12L105.04 37.312C104.976 37.536 104.944 37.712 104.944 37.84C104.944 38.176 105.16 38.384 105.592 38.464L106.792 38.68V40H101.248V38.632L102.088 38.464C102.408 38.4 102.64 38.304 102.784 38.176C102.928 38.032 103.072 37.76 103.216 37.36L108.448 22.72H110.704L115.744 37.36C115.872 37.744 116.008 38.008 116.152 38.152C116.312 38.296 116.56 38.4 116.896 38.464L117.76 38.632ZM112 32.656L109.696 25.864L109.384 24.664L109.072 25.864L106.672 32.656H112ZM140.727 28.24C141.463 28.24 142.103 28.392 142.647 28.696L142.455 31.72H141.063L140.799 30.208C140.607 30.08 140.311 30.016 139.911 30.016C139.287 30.016 138.711 30.296 138.183 30.856C137.655 31.416 137.295 32.088 137.103 32.872V37.648C137.103 37.984 137.135 38.216 137.199 38.344C137.279 38.456 137.431 38.52 137.655 38.536L139.359 38.704V40H133.359V38.704L134.631 38.536C134.871 38.52 135.023 38.456 135.087 38.344C135.151 38.216 135.183 37.984 135.183 37.648V30.784C135.183 30.432 135.151 30.2 135.087 30.088C135.023 29.96 134.871 29.888 134.631 29.872L133.407 29.728V28.48H136.767L137.007 30.76C137.359 30.056 137.879 29.464 138.567 28.984C139.255 28.488 139.975 28.24 140.727 28.24ZM148.854 40.24C147.238 40.24 145.974 39.728 145.062 38.704C144.15 37.68 143.694 36.32 143.694 34.624C143.694 33.392 143.942 32.296 144.438 31.336C144.934 30.36 145.63 29.6 146.526 29.056C147.422 28.512 148.462 28.24 149.646 28.24C151.246 28.24 152.502 28.752 153.414 29.776C154.342 30.784 154.806 32.112 154.806 33.76C154.806 34.992 154.558 36.104 154.062 37.096C153.582 38.072 152.886 38.84 151.974 39.4C151.078 39.96 150.038 40.24 148.854 40.24ZM149.574 38.632C150.742 38.632 151.558 38.288 152.022 37.6C152.486 36.896 152.718 35.776 152.718 34.24C152.718 32.816 152.39 31.728 151.734 30.976C151.078 30.208 150.142 29.824 148.926 29.824C147.758 29.824 146.942 30.176 146.478 30.88C146.014 31.584 145.782 32.704 145.782 34.24C145.782 35.696 146.11 36.792 146.766 37.528C147.422 38.264 148.358 38.632 149.574 38.632ZM169.254 38.704V40H165.894L165.702 38.176C164.454 39.552 163.102 40.24 161.646 40.24C160.462 40.24 159.542 39.944 158.886 39.352C158.246 38.76 157.926 37.912 157.926 36.808V30.784C157.926 30.432 157.894 30.2 157.83 30.088C157.766 29.96 157.614 29.888 157.374 29.872L156.126 29.728V28.48H159.846V36.16C159.846 37.68 160.59 38.44 162.078 38.44C163.566 38.44 164.726 37.824 165.558 36.592V30.784C165.558 30.432 165.518 30.2 165.438 30.088C165.374 29.96 165.23 29.888 165.006 29.872L163.686 29.728V28.48H167.478V37.648C167.478 37.984 167.51 38.216 167.574 38.344C167.638 38.456 167.782 38.52 168.006 38.536L169.254 38.704ZM184.012 38.704V40H180.292V32.32C180.292 31.584 180.084 31.016 179.668 30.616C179.252 30.216 178.636 30.016 177.82 30.016C177.132 30.016 176.5 30.192 175.924 30.544C175.348 30.88 174.9 31.328 174.58 31.888V37.648C174.58 37.984 174.612 38.216 174.676 38.344C174.756 38.456 174.908 38.52 175.132 38.536L176.452 38.704V40H170.884V38.704L172.108 38.536C172.348 38.52 172.5 38.456 172.564 38.344C172.628 38.216 172.66 37.984 172.66 37.648V30.616C172.66 30.344 172.62 30.152 172.54 30.04C172.46 29.928 172.3 29.864 172.06 29.848L170.884 29.728V28.48H174.292L174.508 30.256C175.084 29.6 175.7 29.104 176.356 28.768C177.028 28.416 177.764 28.24 178.564 28.24C179.732 28.24 180.628 28.56 181.252 29.2C181.892 29.84 182.212 30.664 182.212 31.672V37.648C182.212 37.984 182.244 38.216 182.308 38.344C182.372 38.456 182.524 38.52 182.764 38.536L184.012 38.704ZM197.457 38.704V40H194.025L193.833 38.416C192.825 39.632 191.577 40.24 190.089 40.24C188.697 40.24 187.593 39.744 186.777 38.752C185.977 37.76 185.577 36.4 185.577 34.672C185.577 33.472 185.817 32.384 186.297 31.408C186.777 30.416 187.441 29.64 188.289 29.08C189.137 28.52 190.081 28.24 191.121 28.24C192.065 28.24 192.937 28.4 193.737 28.72V23.584C193.737 23.248 193.697 23.024 193.617 22.912C193.537 22.784 193.377 22.712 193.137 22.696L191.721 22.552V21.28H195.657V37.648C195.657 37.984 195.689 38.216 195.753 38.344C195.817 38.456 195.969 38.52 196.209 38.536L197.457 38.704ZM190.737 38.632C191.345 38.632 191.905 38.464 192.417 38.128C192.945 37.776 193.385 37.36 193.737 36.88V30.712C192.825 30.12 191.761 29.824 190.545 29.824C189.569 29.824 188.841 30.192 188.361 30.928C187.897 31.664 187.665 32.832 187.665 34.432C187.665 35.776 187.937 36.816 188.481 37.552C189.025 38.272 189.777 38.632 190.737 38.632Z" fill="black"/>
<path d="M117.76 38.632V40H111.832V38.68L113.08 38.464C113.496 38.384 113.704 38.192 113.704 37.888C113.704 37.744 113.672 37.576 113.608 37.384L112.552 34.264H106.12L105.04 37.312C104.976 37.536 104.944 37.712 104.944 37.84C104.944 38.176 105.16 38.384 105.592 38.464L106.792 38.68V40H101.248V38.632L102.088 38.464C102.408 38.4 102.64 38.304 102.784 38.176C102.928 38.032 103.072 37.76 103.216 37.36L108.448 22.72H110.704L115.744 37.36C115.872 37.744 116.008 38.008 116.152 38.152C116.312 38.296 116.56 38.4 116.896 38.464L117.76 38.632ZM112 32.656L109.696 25.864L109.384 24.664L109.072 25.864L106.672 32.656H112ZM140.727 28.24C141.463 28.24 142.103 28.392 142.647 28.696L142.455 31.72H141.063L140.799 30.208C140.607 30.08 140.311 30.016 139.911 30.016C139.287 30.016 138.711 30.296 138.183 30.856C137.655 31.416 137.295 32.088 137.103 32.872V37.648C137.103 37.984 137.135 38.216 137.199 38.344C137.279 38.456 137.431 38.52 137.655 38.536L139.359 38.704V40H133.359V38.704L134.631 38.536C134.871 38.52 135.023 38.456 135.087 38.344C135.151 38.216 135.183 37.984 135.183 37.648V30.784C135.183 30.432 135.151 30.2 135.087 30.088C135.023 29.96 134.871 29.888 134.631 29.872L133.407 29.728V28.48H136.767L137.007 30.76C137.359 30.056 137.879 29.464 138.567 28.984C139.255 28.488 139.975 28.24 140.727 28.24ZM148.854 40.24C147.238 40.24 145.974 39.728 145.062 38.704C144.15 37.68 143.694 36.32 143.694 34.624C143.694 33.392 143.942 32.296 144.438 31.336C144.934 30.36 145.63 29.6 146.526 29.056C147.422 28.512 148.462 28.24 149.646 28.24C151.246 28.24 152.502 28.752 153.414 29.776C154.342 30.784 154.806 32.112 154.806 33.76C154.806 34.992 154.558 36.104 154.062 37.096C153.582 38.072 152.886 38.84 151.974 39.4C151.078 39.96 150.038 40.24 148.854 40.24ZM149.574 38.632C150.742 38.632 151.558 38.288 152.022 37.6C152.486 36.896 152.718 35.776 152.718 34.24C152.718 32.816 152.39 31.728 151.734 30.976C151.078 30.208 150.142 29.824 148.926 29.824C147.758 29.824 146.942 30.176 146.478 30.88C146.014 31.584 145.782 32.704 145.782 34.24C145.782 35.696 146.11 36.792 146.766 37.528C147.422 38.264 148.358 38.632 149.574 38.632ZM169.254 38.704V40H165.894L165.702 38.176C164.454 39.552 163.102 40.24 161.646 40.24C160.462 40.24 159.542 39.944 158.886 39.352C158.246 38.76 157.926 37.912 157.926 36.808V30.784C157.926 30.432 157.894 30.2 157.83 30.088C157.766 29.96 157.614 29.888 157.374 29.872L156.126 29.728V28.48H159.846V36.16C159.846 37.68 160.59 38.44 162.078 38.44C163.566 38.44 164.726 37.824 165.558 36.592V30.784C165.558 30.432 165.518 30.2 165.438 30.088C165.374 29.96 165.23 29.888 165.006 29.872L163.686 29.728V28.48H167.478V37.648C167.478 37.984 167.51 38.216 167.574 38.344C167.638 38.456 167.782 38.52 168.006 38.536L169.254 38.704ZM184.012 38.704V40H180.292V32.32C180.292 31.584 180.084 31.016 179.668 30.616C179.252 30.216 178.636 30.016 177.82 30.016C177.132 30.016 176.5 30.192 175.924 30.544C175.348 30.88 174.9 31.328 174.58 31.888V37.648C174.58 37.984 174.612 38.216 174.676 38.344C174.756 38.456 174.908 38.52 175.132 38.536L176.452 38.704V40H170.884V38.704L172.108 38.536C172.348 38.52 172.5 38.456 172.564 38.344C172.628 38.216 172.66 37.984 172.66 37.648V30.616C172.66 30.344 172.62 30.152 172.54 30.04C172.46 29.928 172.3 29.864 172.06 29.848L170.884 29.728V28.48H174.292L174.508 30.256C175.084 29.6 175.7 29.104 176.356 28.768C177.028 28.416 177.764 28.24 178.564 28.24C179.732 28.24 180.628 28.56 181.252 29.2C181.892 29.84 182.212 30.664 182.212 31.672V37.648C182.212 37.984 182.244 38.216 182.308 38.344C182.372 38.456 182.524 38.52 182.764 38.536L184.012 38.704ZM197.457 38.704V40H194.025L193.833 38.416C192.825 39.632 191.577 40.24 190.089 40.24C188.697 40.24 187.593 39.744 186.777 38.752C185.977 37.76 185.577 36.4 185.577 34.672C185.577 33.472 185.817 32.384 186.297 31.408C186.777 30.416 187.441 29.64 188.289 29.08C189.137 28.52 190.081 28.24 191.121 28.24C192.065 28.24 192.937 28.4 193.737 28.72V23.584C193.737 23.248 193.697 23.024 193.617 22.912C193.537 22.784 193.377 22.712 193.137 22.696L191.721 22.552V21.28H195.657V37.648C195.657 37.984 195.689 38.216 195.753 38.344C195.817 38.456 195.969 38.52 196.209 38.536L197.457 38.704ZM190.737 38.632C191.345 38.632 191.905 38.464 192.417 38.128C192.945 37.776 193.385 37.36 193.737 36.88V30.712C192.825 30.12 191.761 29.824 190.545 29.824C189.569 29.824 188.841 30.192 188.361 30.928C187.897 31.664 187.665 32.832 187.665 34.432C187.665 35.776 187.937 36.816 188.481 37.552C189.025 38.272 189.777 38.632 190.737 38.632Z" fill="#21612D"/>
<path d="M131.381 40H119.045V38.608L120.245 38.392C120.533 38.344 120.717 38.264 120.797 38.152C120.893 38.024 120.941 37.8 120.941 37.48V25.216C120.941 24.88 120.893 24.648 120.797 24.52C120.717 24.376 120.533 24.288 120.245 24.256L119.045 24.112V22.72H131.285L131.141 26.824H129.653L129.509 25.096C129.493 24.824 129.413 24.64 129.269 24.544C129.141 24.448 128.917 24.4 128.597 24.4H122.933V30.184H128.645V31.768H122.933V38.32H128.669C128.989 38.32 129.213 38.272 129.341 38.176C129.485 38.08 129.565 37.896 129.581 37.624L129.725 35.8H131.237L131.381 40Z" fill="black"/>
</svg>
