<svg width="70" height="44" viewBox="0 0 70 44" fill="none" xmlns="http://www.w3.org/2000/svg">
<path d="M24.3604 18.5339L32.1487 10.5538" stroke="black" stroke-width="2" stroke-linecap="round"/>
<path d="M50.1111 10.5538H22.8889" stroke="black" stroke-width="2" stroke-linecap="round"/>
<path d="M51.9612 15.2623L46.411 0.803284" stroke="black" stroke-width="2" stroke-linecap="round"/>
<path d="M46.4324 0.753845H33.9249" stroke="black" stroke-width="2" stroke-linecap="round"/>
<path d="M48.6613 16.4456C45.7812 18.2008 43.6673 20.7987 42.5272 23.9852C41.4326 27.0435 41.3695 30.1686 42.3228 33.4238C42.5121 34.0717 43.4294 36.0997 43.7894 36.6665C45.5969 39.5161 47.9701 41.4843 50.9499 42.608C53.9274 43.7266 56.992 43.797 60.1616 42.8172C60.7939 42.6232 62.7733 41.6833 63.3264 41.3144C65.6249 39.7852 67.3921 37.7832 68.5288 35.4114C70.1474 32.0416 70.4226 28.2656 69.3293 24.5392C69.1402 23.8914 68.2227 21.8634 67.8629 21.2965C66.0625 18.4496 63.6797 16.4737 60.7022 15.355C57.7911 14.2614 54.7963 14.1701 51.7328 15.0745C51.0559 15.2773 49.2716 16.0681 48.6613 16.4456ZM52.3464 16.8216C57.6232 15.1852 63.4059 17.4601 66.373 22.3476C66.9851 23.3638 67.654 25.072 67.9181 26.316C68.8562 30.6849 67.3494 35.4208 64.0869 38.408C63.0235 39.3757 62.0591 39.9961 60.644 40.6182C58.2376 41.6796 55.8674 41.917 53.2525 41.3706C52.4374 41.2011 50.7121 40.5572 49.9685 40.1413C47.5674 38.7993 45.7827 36.8639 44.6394 34.3495C43.9969 32.9288 43.7141 31.9127 43.5397 30.4072C42.9055 24.8495 45.9696 19.4678 51.0042 17.3087C51.3428 17.1668 51.9439 16.944 52.3464 16.8216Z" fill="black"/>
<path d="M50.4173 19.6134C49.7995 19.9879 49.1304 20.5058 48.5343 21.0764C47.9404 21.6521 47.1311 22.6555 47.1976 22.7491C47.2355 22.8061 53.5248 27.348 53.6667 27.4182C53.7154 27.445 53.8068 27.3768 53.9885 27.1716C54.2036 26.9318 54.3148 26.854 54.7668 26.6393C55.2242 26.4222 55.349 26.3879 55.6736 26.3776L56.0558 26.3588L56.0776 26.1235C56.3153 23.7345 56.7764 18.1698 56.7399 18.1431C56.6427 18.0768 55.2871 18.1014 54.6184 18.1751C53.1292 18.3505 51.7182 18.833 50.4173 19.6134Z" fill="black"/>
<path d="M54.8016 27.6608C54.1712 28.129 53.9835 29.1309 54.4019 29.8265C55.1249 31.034 56.8852 30.8107 57.2908 29.4676C57.4145 29.0525 57.3909 28.6634 57.221 28.2877C56.7974 27.3511 55.6222 27.0462 54.8016 27.6608Z" fill="black"/>
<path d="M46.2576 33.7311C46.3019 33.8291 46.476 34.1464 46.6458 34.441C48.301 37.3317 51.0476 39.235 54.2854 39.7423C54.5886 39.7923 54.8435 39.8023 54.8545 39.7723C54.8653 39.7421 55.0352 37.8919 55.2338 35.6593L55.5942 31.599L55.2668 31.523C54.627 31.3767 54.0035 30.9287 53.6679 30.3627L53.5003 30.0857L49.8431 31.8223L46.1807 33.5612L46.2576 33.7311Z" fill="black"/>
<path d="M58.2495 28.1869C58.4541 28.8152 58.3846 29.5921 58.08 30.187L57.9249 30.492L61.1816 32.8348C62.9726 34.123 64.46 35.1859 64.4895 35.197C64.519 35.2081 64.676 35.0021 64.8348 34.7328C66.5605 31.8563 66.9093 28.4581 65.805 25.2745C65.6882 24.9486 65.5713 24.6227 65.5341 24.5403L65.4713 24.4015L61.8092 26.1404L58.152 27.8769L58.2495 28.1869Z" fill="black"/>
<path d="M7.66791 16.1132C4.78787 17.8683 2.67397 20.4662 1.5339 23.6528C0.439265 26.711 0.376087 29.8361 1.32948 33.0914C1.51877 33.7392 2.43604 35.7672 2.79611 36.334C4.60357 39.1836 6.97676 41.1519 9.95656 42.2755C12.934 43.3941 15.9986 43.4646 19.1683 42.4847C19.8006 42.2908 21.7799 41.3509 22.333 40.9819C24.6315 39.4528 26.3989 37.4507 27.5353 35.079C29.154 31.7092 29.4293 27.9332 28.336 24.2068C28.1467 23.5589 27.2294 21.5309 26.8694 20.9641C25.0692 18.1172 22.6863 16.1412 19.7089 15.0226C16.7977 13.929 13.8029 13.8377 10.7395 14.7421C10.0625 14.9449 8.27828 15.7356 7.66791 16.1132ZM11.3531 16.4892C16.6298 14.8527 22.4125 17.1276 25.3797 22.0151C25.9918 23.0314 26.6606 24.7396 26.9245 25.9835C27.863 30.3525 26.356 35.0884 23.0936 38.0755C22.0301 39.0433 21.0657 39.6636 19.6506 40.2857C17.2442 41.3471 14.8741 41.5845 12.2591 41.0381C11.444 40.8686 9.71877 40.2248 8.97517 39.8088C6.57402 38.4668 4.78935 36.5315 3.64609 34.0171C3.00348 32.5964 2.72076 31.5802 2.54637 30.0747C1.91208 24.517 4.9763 19.1353 10.0109 16.9762C10.3495 16.8343 10.9506 16.6115 11.3531 16.4892Z" fill="black"/>
<path d="M9.42395 19.281C8.80616 19.6555 8.13708 20.1734 7.54091 20.7439C6.94703 21.3197 6.13772 22.323 6.20423 22.4167C6.24212 22.4736 12.5316 27.0156 12.6734 27.0857C12.722 27.1125 12.8134 27.0444 12.9951 26.8391C13.2103 26.5994 13.3214 26.5215 13.7735 26.3068C14.2308 26.0897 14.3557 26.0555 14.6803 26.0451L15.0625 26.0263L15.0843 25.791C15.3219 23.402 15.7831 17.8373 15.7466 17.8107C15.6494 17.7443 14.2937 17.769 13.6252 17.8426C12.1359 18.018 10.7248 18.5006 9.42395 19.281Z" fill="black"/>
<path d="M13.8082 27.3284C13.1779 27.7966 12.9902 28.7984 13.4085 29.494C14.1316 30.7015 15.8918 30.4782 16.2975 29.1352C16.4212 28.72 16.3976 28.331 16.2277 27.9553C15.8041 27.0186 14.6289 26.7137 13.8082 27.3284Z" fill="black"/>
<path d="M5.26426 33.3987C5.30855 33.4966 5.48263 33.814 5.65244 34.1086C7.30762 36.9993 10.0543 38.9026 13.292 39.4099C13.5952 39.4598 13.8502 39.4699 13.8611 39.4399C13.8719 39.4096 14.0418 37.5595 14.2405 35.3269L14.6009 31.2665L14.2735 31.1905C13.6336 31.0442 13.0102 30.5963 12.6746 30.0303L12.507 29.7532L8.8498 31.4898L5.18738 33.2288L5.26426 33.3987Z" fill="black"/>
<path d="M17.2562 27.8545C17.4608 28.4827 17.3913 29.2596 17.0867 29.8545L16.9316 30.1596L20.1882 32.5024C21.9792 33.7906 23.4667 34.8535 23.4962 34.8646C23.5257 34.8756 23.6827 34.6697 23.8415 34.4003C25.5671 31.5239 25.9159 28.1256 24.8117 24.9421C24.6948 24.6161 24.5779 24.2902 24.5407 24.2078L24.4779 24.069L20.8158 25.8079L17.1586 27.5445L17.2562 27.8545Z" fill="black"/>
</svg>
